<svg width="153" height="181" viewBox="0 0 153 181" fill="none" xmlns="http://www.w3.org/2000/svg">
<path d="M133.302 85.3889C133.302 116.563 110.671 145.76 79.7518 154.303C77.6481 154.876 75.3529 154.876 73.2492 154.303C42.3304 145.76 19.6992 116.563 19.6992 85.3889V57.4026C19.6992 52.1751 23.6518 46.2464 28.5606 44.2701L64.0692 29.7353C72.0379 26.4841 81.0267 26.4841 88.9954 29.7353L124.504 44.2701C129.349 46.2464 133.366 52.1751 133.366 57.4026L133.302 85.3889Z" stroke="#C84070" stroke-width="11.9531" stroke-linecap="round" stroke-linejoin="round"/>
<path d="M76.4995 94.1797C83.5411 94.1797 89.2495 88.4713 89.2495 81.4297C89.2495 74.3881 83.5411 68.6797 76.4995 68.6797C69.4579 68.6797 63.7495 74.3881 63.7495 81.4297C63.7495 88.4713 69.4579 94.1797 76.4995 94.1797Z" stroke="#C84070" stroke-width="11.9531" stroke-miterlimit="10" stroke-linecap="round" stroke-linejoin="round"/>
<path d="M76.5 94.1797V113.305" stroke="#C84070" stroke-width="11.9531" stroke-miterlimit="10" stroke-linecap="round" stroke-linejoin="round"/>
</svg>
