<svg width="450" height="150" viewBox="0 0 450 150" fill="none" xmlns="http://www.w3.org/2000/svg">
<g clip-path="url(#clip0_3159_9104)">
<path d="M61.7827 72.3795C61.7827 86.9043 51.238 100.508 36.832 104.489C35.8518 104.756 34.7824 104.756 33.8022 104.489C19.3962 100.508 8.85156 86.9043 8.85156 72.3795V59.3397C8.85156 56.9041 10.6932 54.1417 12.9803 53.2209L29.525 46.4486C33.2379 44.9338 37.426 44.9338 41.1389 46.4486L57.6836 53.2209C59.941 54.1417 61.8124 56.9041 61.8124 59.3397L61.7827 72.3795Z" stroke="white" stroke-width="5.56935" stroke-linecap="round" stroke-linejoin="round"/>
<path d="M35.3166 76.4828C38.5975 76.4828 41.2573 73.8231 41.2573 70.5422C41.2573 67.2613 38.5975 64.6016 35.3166 64.6016C32.0357 64.6016 29.376 67.2613 29.376 70.5422C29.376 73.8231 32.0357 76.4828 35.3166 76.4828Z" stroke="white" stroke-width="5.56935" stroke-miterlimit="10" stroke-linecap="round" stroke-linejoin="round"/>
<path d="M35.3164 76.4766V85.3875" stroke="white" stroke-width="5.56935" stroke-miterlimit="10" stroke-linecap="round" stroke-linejoin="round"/>
<path d="M90.246 108V42.075H106.19L124.922 89.4515H125.196L143.927 42.075H159.872V108H147.582V63.4104H147.171L129.399 108H120.719L102.901 63.4104H102.536V108H90.246ZM183.263 108.777C173.44 108.777 166.816 102.609 166.816 93.9744V93.883C166.816 84.9742 173.714 79.766 185.867 78.9894L197.974 78.2584V75.2431C197.974 70.9029 195.141 68.2074 189.933 68.2074C184.953 68.2074 181.938 70.5374 181.298 73.6898L181.207 74.1009H169.009L169.054 73.5527C169.785 64.5069 177.552 58.0195 190.481 58.0195C203.136 58.0195 211.314 64.5526 211.314 74.4207V108H197.974V100.69H197.7C194.913 105.716 189.705 108.777 183.263 108.777ZM180.019 93.2891C180.019 96.8983 182.989 99.0455 187.603 99.0455C193.588 99.0455 197.974 95.2079 197.974 90.0911V86.5732L187.877 87.2128C182.715 87.5326 180.019 89.7256 180.019 93.1977V93.2891ZM232.695 108L215.746 59.0245H230L240.233 96.213H240.507L250.604 59.0245H264.538L247.726 108H232.695ZM294.417 109.142C278.747 109.142 268.65 101.969 267.873 89.817L267.828 89.086H280.848L280.94 89.5885C281.808 94.7054 287.244 97.9034 294.783 97.9034C302.412 97.9034 307.209 94.5683 307.209 89.5428V89.4971C307.209 85.0199 303.965 82.7813 295.788 81.0909L288.843 79.7203C275.823 77.1162 269.244 70.9029 269.244 60.989V60.9434C269.244 48.8822 279.752 40.9329 294.371 40.9329C309.63 40.9329 318.996 48.5624 319.636 60.121L319.681 60.989H306.661L306.615 60.4408C305.93 55.2783 301.179 52.126 294.371 52.126C287.29 52.1716 283.041 55.4154 283.041 60.121V60.1667C283.041 64.3241 286.422 66.7455 294.006 68.2531L300.996 69.6694C314.793 72.4106 321.006 78.0299 321.006 88.4007V88.4464C321.006 101.101 311.047 109.142 294.417 109.142ZM350.611 109.005C335.626 109.005 326.534 99.274 326.534 83.6036V83.558C326.534 67.979 335.717 58.0195 350.063 58.0195C364.408 58.0195 373.408 67.7506 373.408 82.5529V86.6646H339.692C339.829 94.4769 344.078 99.0455 350.885 99.0455C356.367 99.0455 359.702 96.0303 360.662 93.2891L360.753 93.015H372.997L372.86 93.5175C371.352 100.736 364.591 109.005 350.611 109.005ZM350.291 67.979C344.809 67.979 340.697 71.6339 339.829 78.2584H360.616C359.794 71.4968 355.819 67.979 350.291 67.979ZM394.881 108.777C385.058 108.777 378.434 102.609 378.434 93.9744V93.883C378.434 84.9742 385.332 79.766 397.485 78.9894L409.592 78.2584V75.2431C409.592 70.9029 406.759 68.2074 401.551 68.2074C396.571 68.2074 393.556 70.5374 392.916 73.6898L392.825 74.1009H380.627L380.672 73.5527C381.403 64.5069 389.17 58.0195 402.099 58.0195C414.754 58.0195 422.932 64.5526 422.932 74.4207V108H409.592V100.69H409.317C406.531 105.716 401.322 108.777 394.881 108.777ZM391.637 93.2891C391.637 96.8983 394.607 99.0455 399.221 99.0455C405.206 99.0455 409.592 95.2079 409.592 90.0911V86.5732L399.495 87.2128C394.332 87.5326 391.637 89.7256 391.637 93.1977V93.2891ZM431.886 108V42.075H445.227V108H431.886Z" fill="white"/>
</g>
<defs>
<clipPath id="clip0_3159_9104">
<rect width="450" height="150" fill="white"/>
</clipPath>
</defs>
</svg>
