<svg width="476" height="121" viewBox="0 0 476 121" fill="none" xmlns="http://www.w3.org/2000/svg">
<g clip-path="url(#clip0_3159_9119)">
<g clip-path="url(#clip1_3159_9119)">
<path d="M52.0537 8.44531C23.3074 8.44531 0 31.7527 0 60.499C0 89.2453 23.3074 112.553 52.0537 112.553C80.8 112.553 104.108 89.2453 104.108 60.499C104.108 31.7527 80.8087 8.44531 52.0537 8.44531ZM75.0933 77.4576H68.8162V48.2033C68.8162 47.2493 67.6929 46.75 66.9797 47.3741L55.1566 57.7706V77.4403H49.1024V56.2191C49.1024 54.953 48.7992 53.7939 48.1929 52.7685C47.5866 51.7342 46.7663 50.9139 45.7409 50.3165C44.7244 49.7191 43.5564 49.416 42.2813 49.416H42.0585C40.7834 49.416 39.6154 49.7191 38.5989 50.3165C37.5735 50.9139 36.7532 51.7342 36.1469 52.7685C35.5495 53.7939 35.2375 54.953 35.2375 56.2191V77.4403H29.1832V56.2191C29.1832 54.0168 29.7004 51.9839 30.7168 50.1471C31.7422 48.3103 33.2313 46.8302 35.1572 45.7513C37.0742 44.6725 39.4103 44.1197 42.1031 44.1197H42.2189C44.9028 44.1197 47.2478 44.6636 49.1648 45.7513C51.0907 46.8391 52.5887 48.3192 53.6051 50.1471C53.7478 50.3968 53.8726 50.6553 53.9975 50.9139L60.4349 45.2609C60.5957 45.1183 60.8004 45.038 61.0237 45.038H74.2019C74.6924 45.038 75.0846 45.4304 75.0846 45.9208V77.449L75.0933 77.4576Z" fill="white"/>
</g>
</g>
<g clip-path="url(#clip2_3159_9119)">
<g clip-path="url(#clip3_3159_9119)">
<g clip-path="url(#clip4_3159_9119)">
<path d="M290.386 44.6168C290.227 45.0781 289.967 45.497 289.626 45.8425C289.342 46.087 288.978 46.2139 288.605 46.1977C288.246 46.1977 287.898 46.0723 287.619 45.8425C287.252 45.5029 286.977 45.0743 286.82 44.5969L273.669 7.75781H264.687L279.46 47.6534C280.121 49.6454 281.38 51.3772 283.061 52.6059C284.652 53.7527 286.559 54.362 288.512 54.3468C290.485 54.3698 292.414 53.7605 294.026 52.6059C295.695 51.3546 296.963 49.6319 297.671 47.6534L312.435 7.75781H303.63L290.386 44.6168Z" fill="white"/>
<path d="M471.97 7.75781H462.897L450.99 26.2273H438.165V7.75781H430.008V53.2813H438.184V33.3711H451.346L464.318 53.2763H473.576L458.009 29.0888L471.97 7.75781Z" fill="white"/>
<path d="M242.634 8.59732C241.04 7.44256 239.128 6.82644 237.169 6.83641C235.196 6.81652 233.267 7.42547 231.654 8.57731C229.985 9.8296 228.716 11.5518 228.004 13.5299L213.246 53.4454H222.045L225.73 43.2003H248.381L252.036 53.4454H261.018L246.23 13.5499C245.574 11.5571 244.316 9.82433 242.634 8.59732ZM228.33 36.0614L235.324 16.5865C235.472 16.1219 235.719 15.6965 236.049 15.3408C236.333 15.0963 236.698 14.9694 237.07 14.9856C237.43 14.9847 237.778 15.1102 238.057 15.3408C238.425 15.6791 238.7 16.1082 238.856 16.5865L245.811 36.0614H228.305H228.33Z" fill="white"/>
<path d="M358.799 32.8357C361.081 30.5446 362.222 27.3763 362.222 23.3309V20.6945C362.222 16.6491 361.081 13.4808 358.799 11.1896C356.517 8.89841 353.36 7.75449 349.328 7.75782H324.902V53.2813H333.085V36.2725H346.102L355.913 53.2813H365.28L354.794 35.3921C356.297 34.8479 357.665 33.9751 358.799 32.8357ZM354.039 22.7956C354.039 24.7966 353.496 26.3924 352.396 27.528C351.297 28.6636 349.772 29.2239 347.819 29.2239H333.085V14.8265H347.819C349.772 14.8265 351.298 15.3901 352.396 16.5173C353.496 17.6479 354.039 19.2238 354.039 21.2498V22.7956Z" fill="white"/>
<path d="M396.954 27.7119C396.588 28.3673 396.165 29.4979 395.317 29.5279H395.115C394.262 29.4979 393.841 28.3673 393.478 27.7119C390.98 22.9745 386.492 14.5051 382.837 7.60156H373.179L380.577 21.2436L385.102 29.5329C385.964 31.0337 386.822 33.0048 387.927 34.3305C388.761 35.376 389.807 36.2288 390.99 36.8317V53.3403H399.402V36.8267C400.588 36.2241 401.633 35.3713 402.47 34.3253C403.574 32.9998 404.442 31.0187 405.295 29.5279L409.814 21.2386L417.266 7.60156H407.586L396.945 27.7119H396.954Z" fill="white"/>
<path d="M200.346 7.83646H182.061C181.762 7.83711 181.473 7.94723 181.247 8.14661L172.215 16.1958C172.077 15.9006 171.934 15.6055 171.771 15.3203C170.328 12.7129 168.194 10.5675 165.611 9.12712C162.942 7.61134 159.701 6.83594 155.972 6.83594H155.819C152.09 6.83594 148.844 7.61134 146.186 9.12712C143.596 10.5693 141.459 12.7227 140.02 15.3403C138.6 17.942 137.864 20.8709 137.884 23.8447V53.4851H146.27V23.8447C146.255 22.5818 146.49 21.3288 146.962 20.1598C147.433 18.9907 148.131 17.9296 149.014 17.0391C149.897 16.1486 150.948 15.4468 152.103 14.9754C153.258 14.5041 154.495 14.2726 155.74 14.2948H156.046C157.703 14.2659 159.338 14.6871 160.78 15.5149C162.223 16.3426 163.42 17.5467 164.249 19.0022C165.091 20.4719 165.526 22.1451 165.507 23.8447V53.4851H173.892V25.7507L190.318 11.1182C190.54 10.9213 190.812 10.7932 191.103 10.7493C191.395 10.7053 191.692 10.7473 191.961 10.8702C192.229 10.9931 192.457 11.1917 192.617 11.4424C192.777 11.693 192.863 11.9851 192.863 12.2837V53.4601H201.574V9.0821C201.573 8.75214 201.443 8.43607 201.213 8.20275C200.983 7.96943 200.672 7.83777 200.346 7.83646Z" fill="white"/>
</g>
</g>
</g>
<path d="M138.886 113.016V73.7071H153.242C164.955 73.7071 171.929 80.7897 171.929 93.2116V93.266C171.929 105.715 165.01 113.016 153.242 113.016H138.886ZM145.914 107.077H152.506C160.406 107.077 164.765 102.256 164.765 93.2933V93.2388C164.765 84.4673 160.324 79.6456 152.506 79.6456H145.914V107.077ZM194.204 113.016V97.5156L180.42 73.7071H188.102L197.609 90.8144H197.8L207.307 73.7071H214.989L201.205 97.5156V113.016H194.204ZM227.022 113.016V73.7071H233.342L252.492 101.248H252.655V73.7071H259.629V113.016H253.364L234.159 85.3662H234.023V113.016H227.022ZM271.662 113.016L285.718 73.7071H293.618L307.674 113.016H300.292L296.969 102.855H282.34L279.017 113.016H271.662ZM289.586 80.708L284.111 97.4339H295.198L289.75 80.708H289.586ZM319.68 113.016V73.7071H327.797L339.838 103.727H340.029L352.069 73.7071H360.187V113.016H353.867V85.0666H353.649L342.317 113.016H337.55L326.218 85.0666H326.027V113.016H319.68ZM374.944 113.016V73.7071H381.972V113.016H374.944ZM413.809 113.697C402.504 113.697 395.367 105.906 395.367 93.3478V93.3205C395.367 80.7625 402.531 73.0261 413.809 73.0261C422.853 73.0261 429.499 78.665 430.535 86.6738L430.562 86.9462H423.67L423.534 86.4286C422.39 81.9339 418.93 79.1281 413.809 79.1281C406.944 79.1281 402.558 84.6035 402.558 93.3205V93.3478C402.558 102.092 406.971 107.595 413.809 107.595C418.821 107.595 422.335 104.898 423.615 100.049L423.697 99.7766H430.589L430.535 100.049C429.527 108.112 422.853 113.697 413.809 113.697ZM457.55 113.697C448.533 113.697 442.595 109.447 442.132 102.392L442.104 101.983H448.833L448.887 102.31C449.405 105.688 452.864 107.785 457.795 107.785C462.753 107.785 465.858 105.579 465.858 102.201V102.174C465.858 99.2318 463.815 97.6518 458.748 96.5894L454.526 95.7177C446.79 94.1105 442.976 90.5147 442.976 84.6579V84.6307C443.003 77.7115 449.078 73.0261 457.55 73.0261C466.131 73.0261 471.742 77.5481 472.151 84.2766L472.178 84.7397H465.45L465.395 84.4128C464.932 80.9804 461.908 78.9374 457.495 78.9374C452.892 78.9646 450.031 81.1166 450.031 84.2493V84.2766C450.031 87.0551 452.183 88.6896 456.923 89.6703L461.173 90.542C469.345 92.2309 472.914 95.5543 472.914 101.683V101.711C472.914 109.038 467.139 113.697 457.55 113.697Z" fill="white"/>
<defs>
<clipPath id="clip0_3159_9119">
<rect width="104.116" height="104.116" fill="white" transform="translate(0 8.44531)"/>
</clipPath>
<clipPath id="clip1_3159_9119">
<rect width="104.116" height="104.116" fill="white" transform="translate(0 8.44531)"/>
</clipPath>
<clipPath id="clip2_3159_9119">
<rect width="337.674" height="47.8372" fill="white" transform="translate(137.884 7.03125)"/>
</clipPath>
<clipPath id="clip3_3159_9119">
<rect width="337.424" height="87.9204" fill="white" transform="translate(137.884 -13.375)"/>
</clipPath>
<clipPath id="clip4_3159_9119">
<rect width="337.424" height="87.9204" fill="white" transform="translate(137.884 -13.375)"/>
</clipPath>
</defs>
</svg>
