<svg width="196" height="49" viewBox="0 0 196 49" fill="none" xmlns="http://www.w3.org/2000/svg">
<path d="M27.7999 23.3667C27.7999 29.6341 23.2499 35.5042 17.0338 37.2216C16.6109 37.337 16.1494 37.337 15.7265 37.2216C9.51038 35.5042 4.96045 29.6341 4.96045 23.3667V17.7402C4.96045 16.6892 5.75511 15.4972 6.74199 15.0999L13.8809 12.1777C15.483 11.5241 17.2901 11.5241 18.8922 12.1777L26.0312 15.0999C27.0052 15.4972 27.8127 16.6892 27.8127 17.7402L27.7999 23.3667Z" stroke="white" stroke-width="2.40314" stroke-linecap="round" stroke-linejoin="round"/>
<path d="M16.3798 25.1345C17.7954 25.1345 18.9431 23.9869 18.9431 22.5712C18.9431 21.1555 17.7954 20.0078 16.3798 20.0078C14.9641 20.0078 13.8164 21.1555 13.8164 22.5712C13.8164 23.9869 14.9641 25.1345 16.3798 25.1345Z" stroke="white" stroke-width="2.40314" stroke-miterlimit="10" stroke-linecap="round" stroke-linejoin="round"/>
<path d="M16.3799 25.125V28.97" stroke="white" stroke-width="2.40314" stroke-miterlimit="10" stroke-linecap="round" stroke-linejoin="round"/>
<path d="M40.1184 38.5V10.0538H46.9983L55.0807 30.4964H55.199L63.2814 10.0538H70.1613V38.5H64.8585V19.2599H64.681L57.0126 38.5H53.2671L45.5789 19.2599H45.4212V38.5H40.1184ZM80.2545 38.8351C76.0162 38.8351 73.1577 36.1738 73.1577 32.448V32.4086C73.1577 28.5645 76.1344 26.3172 81.3782 25.9821L86.6022 25.6667V24.3656C86.6022 22.4929 85.3799 21.3298 83.1326 21.3298C80.9839 21.3298 79.6828 22.3351 79.4068 23.6954L79.3674 23.8728H74.104L74.1237 23.6362C74.4391 19.733 77.7903 16.9337 83.3692 16.9337C88.8298 16.9337 92.3584 19.7527 92.3584 24.0108V38.5H86.6022V35.3459H86.4839C85.2814 37.5143 83.0341 38.8351 80.2545 38.8351ZM78.8549 32.1523C78.8549 33.7097 80.1362 34.6362 82.1273 34.6362C84.7097 34.6362 86.6022 32.9803 86.6022 30.7724V29.2545L82.2455 29.5305C80.0179 29.6685 78.8549 30.6147 78.8549 32.1129V32.1523ZM101.584 38.5L94.2706 17.3674H100.421L104.837 33.414H104.955L109.312 17.3674H115.324L108.07 38.5H101.584ZM128.217 38.9928C121.455 38.9928 117.099 35.8979 116.763 30.6541L116.744 30.3387H122.362L122.401 30.5556C122.776 32.7634 125.122 34.1434 128.375 34.1434C131.667 34.1434 133.737 32.7043 133.737 30.5359V30.5161C133.737 28.5842 132.337 27.6183 128.808 26.8889L125.812 26.2975C120.194 25.1739 117.355 22.4929 117.355 18.2151V18.1954C117.355 12.9911 121.889 9.56097 128.197 9.56097C134.781 9.56097 138.823 12.8531 139.099 17.8405L139.118 18.2151H133.5L133.48 17.9785C133.185 15.7509 131.134 14.3907 128.197 14.3907C125.142 14.4104 123.308 15.8101 123.308 17.8405V17.8602C123.308 19.6541 124.767 20.6989 128.039 21.3495L131.056 21.9606C137.009 23.1434 139.69 25.5681 139.69 30.043V30.0627C139.69 35.5233 135.392 38.9928 128.217 38.9928ZM152.464 38.9337C145.998 38.9337 142.075 34.7348 142.075 27.9731V27.9534C142.075 21.2312 146.038 16.9337 152.228 16.9337C158.417 16.9337 162.301 21.1326 162.301 27.5197V29.2939H147.753C147.812 32.6649 149.645 34.6362 152.582 34.6362C154.948 34.6362 156.387 33.3351 156.801 32.1523L156.84 32.0341H162.124L162.064 32.2509C161.414 35.3656 158.496 38.9337 152.464 38.9337ZM152.326 21.2312C149.96 21.2312 148.186 22.8083 147.812 25.6667H156.781C156.426 22.7491 154.711 21.2312 152.326 21.2312ZM171.566 38.8351C167.328 38.8351 164.469 36.1738 164.469 32.448V32.4086C164.469 28.5645 167.446 26.3172 172.69 25.9821L177.914 25.6667V24.3656C177.914 22.4929 176.692 21.3298 174.444 21.3298C172.296 21.3298 170.995 22.3351 170.719 23.6954L170.679 23.8728H165.416L165.435 23.6362C165.751 19.733 169.102 16.9337 174.681 16.9337C180.141 16.9337 183.67 19.7527 183.67 24.0108V38.5H177.914V35.3459H177.796C176.593 37.5143 174.346 38.8351 171.566 38.8351ZM170.167 32.1523C170.167 33.7097 171.448 34.6362 173.439 34.6362C176.021 34.6362 177.914 32.9803 177.914 30.7724V29.2545L173.557 29.5305C171.33 29.6685 170.167 30.6147 170.167 32.1129V32.1523ZM187.534 38.5V10.0538H193.29V38.5H187.534Z" fill="white"/>
</svg>
